<svg xmlns="http://www.w3.org/2000/svg" viewBox="0 0 74.85 84.85"><defs><style>.cls-1{fill:#902c63;}.cls-2{fill:#d13b5d;}.cls-3{fill:#fc876d;}.cls-4{fill:#fdd172;}.cls-5{fill:#fff;}.cls-6{fill:#56154b;}</style></defs><title>Asset 3</title><g id="Layer_2" data-name="Layer 2"><g id="Layer_1-2" data-name="Layer 1"><circle class="cls-1" cx="37.43" cy="47.16" r="37.43"/><path class="cls-2" d="M37.43,79.14a32,32,0,1,1,32-32A32,32,0,0,1,37.43,79.14Z"/><path class="cls-3" d="M37.43,72.78A25.62,25.62,0,1,1,63.05,47.16,25.65,25.65,0,0,1,37.43,72.78Z"/><path class="cls-4" d="M37.43,66.31A19.15,19.15,0,1,1,56.58,47.16,19.18,19.18,0,0,1,37.43,66.31Z"/><path class="cls-5" d="M54.84,76.77c-2.41-.22-2.67,1.41-2.67,1.41a2.58,2.58,0,0,0-1.36-2.28,3.08,3.08,0,0,0-3,.08S46.06,66,45.6,61.91c-.41-3.75-1.14-16.73-1.14-16.73H42.74l.47,31.28s-.1-2-1.48-2.41a2.54,2.54,0,0,0-2.61,1s-.47-3.14-2.64-3.2c-2.83-.07-3.18,3.2-3.18,3.2l-.79-28.76-1.26.94s-.16,7.86-.94,14-2.2,13.36-2.2,13.36a3.43,3.43,0,0,0-3.14,0,2.88,2.88,0,0,0-2,2.51,3.52,3.52,0,0,0-2.51,0,3.06,3.06,0,0,0-1.89,2.66,37.46,37.46,0,0,0,38.35-.33S56.88,77,54.84,76.77Z"/><path class="cls-6" d="M47.39,37.61c.46-8.14-1.29-18.17-3.94-25.83A61,61,0,0,0,38,0a45.48,45.48,0,0,0-5.83,11.6c-2.64,7.71-4.4,17.84-3.88,26a14.16,14.16,0,0,0-5.47,6.88v20s1.68-11.1,9.1-15.19A7.64,7.64,0,0,0,38,52.06a7.35,7.35,0,0,0,5.79-2.61c6.82,4.21,8.34,15,8.34,15V45.77A11.58,11.58,0,0,0,47.39,37.61Z"/></g></g></svg>