<svg xmlns="http://www.w3.org/2000/svg" viewBox="0 0 385.35 390"><defs><style>.cls-1{font-size:61.5px;font-family:Montserrat-Bold, Montserrat;font-weight:700;letter-spacing:0.2em;}.cls-1,.cls-3{fill:#d13b5d;}.cls-2{fill:#902c63;}.cls-4{fill:#fc876d;}.cls-5{fill:#fdd172;}.cls-6{fill:#2c022c;}.cls-7{fill:#521449;}</style></defs><title>Asset 2</title><g id="Layer_2" data-name="Layer 2"><g id="Layer_1-2" data-name="Layer 1"><text class="cls-1" transform="translate(0.31 371.43)">JET FUEL</text><circle class="cls-2" cx="192.68" cy="163.06" r="129.41"/><path class="cls-3" d="M192.68,273.64A110.57,110.57,0,1,1,303.25,163.06,110.7,110.7,0,0,1,192.68,273.64Z"/><path class="cls-4" d="M192.68,251.67a88.6,88.6,0,1,1,88.6-88.6A88.7,88.7,0,0,1,192.68,251.67Z"/><path class="cls-5" d="M192.68,229.29a66.23,66.23,0,1,1,66.23-66.23A66.31,66.31,0,0,1,192.68,229.29Z"/><path class="cls-6" d="M252.9,265.45c-8.32-.75-9.24,4.89-9.24,4.89a8.92,8.92,0,0,0-4.69-7.88,10.64,10.64,0,0,0-10.53.27s-5.92-34.38-7.49-48.66c-1.42-13-3.93-57.86-3.93-57.86h-6l1.63,108.16s-.36-7.08-5.11-8.34c-5.59-1.48-9,3.45-9,3.45s-1.63-10.87-9.13-11.07c-9.79-.26-11,11.07-11,11.07L175.72,160l-4.35,3.26s-.54,27.18-3.26,48.37-7.61,46.2-7.61,46.2-3.8-2.72-10.87,0-7.07,8.7-7.07,8.7a12.16,12.16,0,0,0-8.7,0,10.58,10.58,0,0,0-6.52,9.19,129.52,129.52,0,0,0,132.6-1.15S259.95,266.08,252.9,265.45Z"/><path class="cls-7" d="M227.12,130c1.59-28.13-4.47-62.82-13.61-89.32A210.88,210.88,0,0,0,194.5,0s-11.77,15.59-20.17,40.11c-9.13,26.64-15.2,61.67-13.41,90A49,49,0,0,0,142,153.9v69s5.8-38.39,31.47-52.51a26.43,26.43,0,0,0,21,9.6,25.43,25.43,0,0,0,20-9c23.59,14.56,28.84,51.92,28.84,51.92V158.26A40,40,0,0,0,227.12,130Z"/></g></g></svg>